Coordinates
version=1
nRows=11
nColumns=40
inDegrees=yes

Units are S.I. units (second, meters, Newtons, ...)
Angles are in degrees.

endheader
time	pelvis_tilt	pelvis_list	pelvis_rotation	pelvis_tx	pelvis_ty	pelvis_tz	hip_flexion_r	hip_adduction_r	hip_rotation_r	knee_angle_r	knee_angle_r_beta	ankle_angle_r	subtalar_angle_r	mtp_angle_r	hip_flexion_l	hip_adduction_l	hip_rotation_l	knee_angle_l	knee_angle_l_beta	ankle_angle_l	subtalar_angle_l	mtp_angle_l	lumbar_extension	lumbar_bending	lumbar_rotation	arm_flex_r	arm_add_r	arm_rot_r	elbow_flex_r	pro_sup_r	wrist_flex_r	wrist_dev_r	arm_flex_l	arm_add_l	arm_rot_l	elbow_flex_l	pro_sup_l	wrist_flex_l	wrist_dev_l
      6.12500000	    -22.90775349	    -33.51675087	     12.47309388	      0.98249889	      0.86029428	      0.42537179	     53.75875702	      8.06712266	    -38.56004744	     16.13270478	     16.13270478	      2.08831855	    -12.47218441	     25.71002263	     58.27833597	    -23.75471669	     23.02187706	     44.93724622	     44.93724622	     26.88639128	      4.41236976	      0.93835842	     12.18255875	     36.84418181	    -13.90251874	    -26.63391188	    -25.29143257	      0.53645353	     50.51878598	     45.51804530	      0.00000000	      0.00000000	     28.67097893	    -16.32279733	     -4.37825799	    101.68226998	     48.02492040	      0.00000000	      0.00000000
      6.13621429	    -26.51586099	    -39.65673598	     14.69137542	      0.96417972	      0.84064330	      0.42595217	     59.62836827	      8.42802870	    -39.77348154	     13.94475697	     13.94475697	     -0.42098871	    -19.09994675	     27.47220978	     68.87259294	    -21.57244103	     31.60259147	     48.37747234	     48.37747234	     27.31094498	      4.83273322	      1.94132671	     20.89045265	     41.38259779	    -19.21305645	    -33.22102859	    -27.25432762	     -1.02348600	     59.96968251	     45.22584811	      0.00000000	      0.00000000	     32.12847930	    -15.26140846	     -2.08019988	    102.53036619	     47.98903647	      0.00000000	      0.00000000
      6.14742857	    -29.86374498	    -43.02025184	     15.11242805	      0.94974130	      0.82587846	      0.42683475	     63.53471265	      7.73543285	    -39.89832990	     12.30174397	     12.30174397	     -1.40812437	    -19.74371404	     28.36815937	     75.31531255	    -18.98861293	     36.14164879	     50.56776229	     50.56776229	     27.27685888	      4.30281836	      1.78275489	     27.29421534	     43.10866970	    -22.85492661	    -36.01811891	    -28.19580154	     -1.75880696	     61.72989589	     45.18355138	      0.00000000	      0.00000000	     34.39540943	    -14.39786719	     -0.99316012	    103.33844873	     47.96208929	      0.00000000	      0.00000000
      6.15864286	    -31.85204834	    -44.71242091	     15.09938170	      0.94165449	      0.81677191	      0.42863910	     65.66327888	      7.31462967	    -39.92255215	     11.56598395	     11.56598395	     -1.96816973	    -19.81811171	     28.58939382	     78.66540468	    -17.60705360	     38.28734686	     52.02394211	     52.02394211	     27.78608662	      4.24678494	      2.40343525	     30.90603566	     43.98175957	    -24.19240272	    -41.48601458	    -28.76650038	     -4.09762813	     70.49477655	     44.96535614	      0.00000000	      0.00000000	     36.22950453	    -13.80378246	      0.43876260	    103.36746452	     47.93146210	      0.00000000	      0.00000000
      6.16985714	    -32.11213882	    -44.79473070	     15.07245538	      0.94201682	      0.81490357	      0.43159583	     65.76012624	      7.71071462	    -39.92495335	     11.26540567	     11.26540567	     -2.40754214	    -19.82532858	     28.53942843	     78.82687294	    -17.98524075	     38.52002151	     52.29906287	     52.29906287	     27.92295631	      4.35581192	      1.21966054	     31.34713054	     43.93308189	    -23.37330697	    -42.87600049	    -26.32248593	     -7.88186331	     70.18443907	     45.15863971	      0.00000000	      0.00000000	     36.48695294	    -12.84413515	      1.06682024	    103.33409463	     47.99108180	      0.00000000	      0.00000000
      6.18107143	    -30.39794350	    -43.29007370	     15.20698738	      0.95084567	      0.82023474	      0.43551506	     63.65446206	      8.95766022	    -39.90975688	     11.39628806	     11.39628806	     -2.51276151	    -19.78021204	     28.20119722	     75.65318811	    -19.96174882	     37.21082016	     51.69598739	     51.69598739	     28.44710198	      4.27632200	      0.78333461	     28.63572760	     43.13237990	    -21.75071243	    -42.28149209	    -25.12626185	     -7.34806617	     69.43408890	     45.17127681	      0.00000000	      0.00000000	     34.72439276	    -13.12390247	      0.77895302	    103.42458324	     48.00861931	      0.00000000	      0.00000000
      6.19228571	    -27.10984644	    -40.01453028	     15.13314524	      0.96669406	      0.83188424	      0.44032364	     59.48587833	     10.45898322	    -39.84158195	     12.25025351	     12.25025351	     -2.42441116	    -19.51477451	     26.75181448	     68.98565330	    -23.29411539	     33.22535187	     49.94240257	     49.94240257	     28.33157842	      4.65909543	     -2.12600671	     22.68514034	     41.00993495	    -18.97515244	    -36.97327948	    -23.11987918	     -5.85820992	     60.05034658	     45.48081290	      0.00000000	      0.00000000	     31.26519014	    -13.95848757	     -0.99583259	    105.34656286	     48.18564659	      0.00000000	      0.00000000
      6.20350000	    -23.19146280	    -34.37113836	     13.80434566	      0.98671566	      0.84816142	      0.44528891	     53.16531155	     11.00923328	    -39.39347162	     13.69196409	     13.69196409	     -1.42975832	    -14.85369424	     22.02471883	     58.18080839	    -26.28703325	     25.65307804	     47.33946273	     47.33946273	     28.29329694	      4.45746123	     -4.07476881	     14.56040193	     36.80758068	    -14.46537633	    -31.64456361	    -21.06363023	     -3.81685100	     51.07976173	     45.74506792	      0.00000000	      0.00000000	     27.07878408	    -14.87664363	     -3.14302965	    106.34196655	     48.33233301	      0.00000000	      0.00000000
      6.21471429	    -19.06911622	    -25.75748727	     10.28794844	      1.00830113	      0.86795222	      0.45079091	     45.08365211	      9.69828047	    -34.38178434	     15.12063690	     15.12063690	     -0.32684317	     -8.42093713	     15.54677280	     42.51574587	    -26.24279214	     13.95988008	     43.23283691	     43.23283691	     27.77855328	      2.25133078	     -5.11700494	      5.30502580	     29.20681592	     -8.86164602	    -25.45878287	    -18.94505051	     -1.51292173	     40.79347359	     46.03881777	      0.00000000	      0.00000000	     22.39435035	    -16.06672868	     -5.85745254	    106.87752281	     48.51578603	      0.00000000	      0.00000000
      6.22592857	    -14.57106499	    -16.20307423	      5.50592220	      1.02835127	      0.88780539	      0.45748397	     37.23002877	      6.49918447	    -25.49454566	     16.58373196	     16.58373196	     -0.62640174	     -5.78222232	      6.77431727	     25.58681213	    -21.52723291	      2.18594910	     37.08085127	     37.08085127	     25.92007714	     -1.39009562	     -5.33181125	     -2.68566944	     19.63248361	     -3.57117214	    -20.66321654	    -16.77314015	     -0.33457796	     32.72006242	     46.28701626	      0.00000000	      0.00000000	     18.33823465	    -16.69220658	     -8.13108359	    106.88992333	     48.67513606	      0.00000000	      0.00000000
      6.23714286	    -10.34657170	     -8.16891928	      0.84101077	      1.04419152	      0.90383754	      0.46436508	     31.27116752	      2.06978728	    -18.63908808	     18.22868149	     18.22868149	     -0.27192141	     -2.52802827	     -0.45649776	     12.19327932	    -14.03961583	     -5.03945138	     30.02164696	     30.02164696	     22.19229218	     -6.06039688	     -5.26401261	     -8.06455128	     10.82465357	      0.33317135	    -17.81577183	    -15.06547889	     -0.46771903	     28.14029863	     46.46879485	      0.00000000	      0.00000000	     15.33230087	    -16.78144628	     -9.51850223	    106.03611066	     48.76701159	      0.00000000	      0.00000000
